# Blender 4.0.0
# www.blender.org
mtllib gun.mtl
o gun
v -0.026487 -0.051245 -0.069849
v -0.037234 -0.051667 -0.058541
v -0.047981 -0.040920 -0.062085
v -0.037234 -0.050403 -0.077889
v -0.026487 -0.240921 -0.004302
v -0.037234 -0.230174 -0.006967
v -0.026487 -0.230596 -0.018032
v -0.061691 0.065302 0.067219
v -0.068312 0.046077 0.067219
v -0.066388 0.056823 0.077792
v -0.061691 0.065303 -0.072832
v -0.068312 0.046077 -0.072832
v -0.026487 -0.051245 0.070202
v -0.047981 -0.040920 0.077966
v -0.037234 -0.051667 0.059138
v -0.026487 -0.240921 0.114256
v -0.026487 -0.230596 0.122020
v -0.037234 -0.230174 0.110712
v -0.064309 -0.040920 -0.062085
v -0.068312 -0.030174 -0.072832
v -0.061974 -0.049599 -0.089969
v -0.052178 -0.050403 -0.077889
v -0.064578 -0.040920 0.067219
v -0.068312 -0.030174 0.067219
v -0.053618 -0.030174 0.238025
v -0.065055 -0.030679 0.222267
v -0.065409 -0.040920 0.222072
v -0.029374 0.046077 0.238025
v -0.026472 0.059262 0.227559
v -0.040095 0.056823 0.222301
v -0.008169 0.068159 -0.395614
v -0.023586 0.056823 -0.406345
v -0.027024 0.063347 -0.395633
v -0.054923 -0.040920 -0.406345
v -0.061974 -0.049599 -0.394163
v -0.065056 -0.030679 -0.395598
v -0.026470 0.096625 -0.072832
v -0.041306 0.091410 -0.072832
v -0.040833 0.092016 0.067219
v -0.026472 0.096625 0.067219
v -0.039571 -0.080273 -0.106361
v -0.026487 -0.083473 -0.106273
v -0.037234 -0.071060 -0.088906
v -0.031697 -0.072727 -0.406345
v -0.026487 -0.083473 -0.395598
v -0.039515 -0.080350 -0.394106
v -0.046152 0.065303 -0.239588
v -0.054460 0.046209 -0.239588
v -0.066625 -0.030307 -0.239588
v -0.061974 -0.049599 -0.239588
v -0.026467 0.076724 -0.239588
v -0.041578 0.071161 -0.239588
v -0.041489 0.046578 -0.395640
v 0.026487 -0.051245 -0.069849
v 0.037234 -0.050403 -0.077889
v 0.047981 -0.040920 -0.062085
v 0.037234 -0.051667 -0.058541
v 0.026487 -0.240921 -0.004302
v 0.026487 -0.230596 -0.018032
v 0.037234 -0.230174 -0.006967
v 0.068312 0.046077 0.067219
v 0.061691 0.065302 0.067219
v 0.066388 0.056823 0.077792
v 0.068312 0.046077 -0.072832
v 0.061691 0.065303 -0.072832
v 0.037234 -0.051667 0.059138
v 0.047981 -0.040920 0.077966
v 0.026487 -0.051245 0.070202
v 0.026487 -0.240921 0.114256
v 0.037234 -0.230174 0.110712
v 0.026487 -0.230596 0.122020
v 0.064309 -0.040920 -0.062085
v 0.052178 -0.050403 -0.077889
v 0.061974 -0.049599 -0.089969
v 0.068312 -0.030174 -0.072832
v 0.068312 -0.030174 0.067219
v 0.064578 -0.040920 0.067219
v 0.065056 -0.030679 0.222267
v 0.053618 -0.030174 0.238025
v 0.065409 -0.040920 0.222072
v 0.029374 0.046077 0.238025
v 0.040095 0.056823 0.222301
v 0.026472 0.059262 0.227559
v 0.008169 0.068159 -0.395614
v 0.027024 0.063347 -0.395633
v 0.023586 0.056823 -0.406345
v 0.065056 -0.030679 -0.395598
v 0.061974 -0.049599 -0.394163
v 0.054923 -0.040920 -0.406345
v 0.041306 0.091410 -0.072832
v 0.026470 0.096625 -0.072832
v 0.026472 0.096625 0.067219
v 0.040833 0.092016 0.067219
v 0.026487 -0.083473 -0.106273
v 0.039571 -0.080273 -0.106361
v 0.037234 -0.071060 -0.088906
v 0.026487 -0.083473 -0.395598
v 0.031697 -0.072727 -0.406345
v 0.039515 -0.080350 -0.394106
v 0.054460 0.046209 -0.239588
v 0.046152 0.065303 -0.239588
v 0.061974 -0.049599 -0.239588
v 0.066625 -0.030307 -0.239588
v 0.041578 0.071161 -0.239588
v 0.026467 0.076724 -0.239588
v 0.041489 0.046578 -0.395640
vn -0.3574 -0.8391 0.4101
vn -0.3375 -0.9004 -0.2745
vn 0.3375 -0.9004 -0.2745
vn 0.3574 -0.8391 0.4101
vn -0.2612 -0.6934 0.6715
vn 0.2612 -0.6934 0.6715
vn 0.1282 -0.8065 0.5771
vn -0.1282 -0.8065 0.5771
vn 0.9841 0.1766 0.0181
vn 0.9265 0.3722 0.0542
vn 0.7000 0.5978 0.3907
vn 0.9392 0.0548 0.3389
vn 0.9955 -0.0905 0.0271
vn -0.1501 0.9824 0.1112
vn -0.1606 0.8319 0.5312
vn 0.1606 0.8319 0.5312
vn 0.1501 0.9824 0.1112
vn 0.8671 -0.3982 -0.2994
vn 0.7964 -0.5606 -0.2269
vn 0.8587 -0.4535 0.2385
vn 0.8961 -0.2667 0.3547
vn 0.6387 -0.7016 0.3159
vn -0.6387 -0.7016 0.3159
vn -0.1098 -0.9884 0.1047
vn 0.1098 -0.9884 0.1047
vn 0.5585 0.8242 0.0935
vn 0.8594 0.5104 0.0315
vn -0.4621 -0.1112 -0.8798
vn -0.2918 0.4348 -0.8519
vn 0.2918 0.4348 -0.8519
vn 0.4621 -0.1112 -0.8798
vn 0.5437 -0.7755 -0.3209
vn 0.8598 -0.3979 -0.3201
vn 0.9073 -0.4205 -0.0025
vn -0.1653 0.9845 -0.0586
vn 0.1653 0.9845 -0.0586
vn 0.1651 0.9818 -0.0935
vn -0.1651 0.9818 -0.0935
vn -0.9073 -0.4205 -0.0025
vn -0.5437 -0.7755 -0.3209
vn -0.5112 -0.8346 0.2050
vn -0.5585 0.8242 0.0935
vn -0.5769 0.8154 -0.0488
vn -0.8744 0.4836 -0.0391
vn -0.8594 0.5104 0.0315
vn 0.5112 -0.8346 0.2050
vn 0.6105 -0.7920 0.0021
vn -0.9806 0.1935 -0.0322
vn -0.9502 0.3045 -0.0667
vn -0.9988 -0.0419 -0.0259
vn -0.9754 -0.2195 0.0197
vn 0.5769 0.8154 -0.0488
vn 0.8744 0.4836 -0.0391
vn 0.8403 0.5351 -0.0873
vn 0.5828 0.8069 -0.0963
vn -0.9265 0.3722 0.0542
vn -0.7000 0.5978 0.3907
vn 0.9150 0.0495 -0.4004
vn 0.8354 0.3565 -0.4183
vn 0.9502 0.3045 -0.0667
vn 0.9988 -0.0419 -0.0259
vn -0.9955 -0.0905 0.0271
vn -0.9841 0.1766 0.0181
vn -0.2570 -0.9489 0.1833
vn -0.6105 -0.7920 0.0021
vn -0.6185 -0.7747 0.1320
vn -0.8598 -0.3979 -0.3201
vn 0.3936 -0.7710 0.5006
vn -0.5828 0.8069 -0.0963
vn -0.5328 0.7804 -0.3273
vn -0.8403 0.5351 -0.0873
vn 0.1126 -0.9232 -0.3673
vn 0.0984 -0.9542 0.2826
vn -0.0984 -0.9542 0.2826
vn -0.1126 -0.9232 -0.3673
vn 0.9806 0.1935 -0.0322
vn 0.9754 -0.2195 0.0197
vn -0.3936 -0.7710 0.5006
vn -0.2274 -0.4192 -0.8790
vn 0.2274 -0.4192 -0.8790
vn 0.2570 -0.9489 0.1833
vn 0.6185 -0.7747 0.1320
vn -0.3375 -0.5137 -0.7888
vn -0.2912 -0.8140 -0.5025
vn 0.2912 -0.8140 -0.5025
vn 0.3375 -0.5137 -0.7888
vn 0.3574 -0.1611 0.9199
vn 0.2800 -0.3238 0.9037
vn -0.2800 -0.3238 0.9037
vn -0.3574 -0.1611 0.9199
vn 0.5328 0.7804 -0.3273
vn -0.8401 -0.5247 0.1374
vn -0.0976 0.9125 -0.3971
vn 0.0976 0.9125 -0.3971
vn -0.9392 0.0548 0.3389
vn 0.8401 -0.5247 0.1374
vn -0.3274 0.3365 0.8829
vn -0.3939 -0.3066 0.8665
vn 0.3939 -0.3066 0.8665
vn 0.3274 0.3365 0.8829
vn -0.8354 0.3565 -0.4183
vn -0.9150 0.0495 -0.4004
vn -0.7964 -0.5606 -0.2269
vn -0.8671 -0.3982 -0.2994
vn -0.8587 -0.4535 0.2385
vn -0.8961 -0.2667 0.3547
vt 0.144183 0.500000
vt 0.355817 0.500000
vt 0.355817 0.500000
vt 0.625000 0.500000
vt 0.625000 0.250000
vt 0.625000 0.250000
vt 0.875000 0.500000
vt 0.875000 0.500000
vt 0.875000 0.500000
vt 0.388433 0.480032
vt 0.611567 0.480032
vt 0.611567 0.269968
vt 0.388433 0.269968
vt 0.625000 0.250000
vt 0.625000 0.500000
vt 0.625000 0.500000
vt 0.625000 0.500000
vt 0.625000 0.480817
vt 0.625000 0.230817
vt 0.625000 0.480817
vt 0.625000 0.500000
vt 0.625000 0.500000
vt 0.625000 0.500000
vt 0.625000 0.230817
vt 0.625000 0.480817
vt 0.387906 0.500000
vt 0.612095 0.500000
vt 0.612095 0.500000
vt 0.387905 0.500000
vt 0.387906 0.250000
vt 0.612095 0.250000
vt 0.612095 0.250000
vt 0.387906 0.250000
vt 0.625000 0.250000
vt 0.611567 0.480032
vt 0.360574 0.500000
vt 0.375000 0.500000
vt 0.611567 0.269968
vt 0.130325 0.500000
vt 0.150510 0.500000
vt 0.150510 0.500000
vt 0.130325 0.500000
vt 0.388433 0.269968
vt 0.125000 0.500000
s 1
usemtl Material
f 16/1/1 5/2/2 58/3/3 69/1/4
f 43/4/5 96/4/6 55/4/7 4/4/8
f 61/5/9 63/5/10 82/5/11 78/6/12 76/5/13
f 40/7/14 29/8/15 83/9/16 92/7/17
f 60/10/18 57/11/19 66/12/20 70/13/21
f 80/5/22 27/5/23 14/5/24 67/14/25
f 93/7/26 82/7/11 63/7/10 62/7/27
f 34/4/28 32/4/29 86/4/30 89/4/31
f 99/4/32 88/4/33 102/4/34
f 37/4/35 91/4/36 105/4/37 51/4/38
f 50/15/39 46/4/40 41/4/41
f 39/7/42 38/4/43 11/4/44 8/7/45
f 95/4/46 99/4/32 102/4/34
f 67/14/25 77/5/47 80/5/22
f 12/4/48 48/4/49 49/4/50 20/4/51
f 90/4/52 65/4/53 101/4/54 104/4/55
f 39/7/42 8/7/45 10/7/56 30/7/57
f 87/16/58 106/17/59 100/4/60 103/4/61
f 24/5/62 9/5/63 12/4/48 20/4/51
f 3/18/64 14/19/24 23/5/65 19/20/66
f 50/15/39 35/4/67 46/4/40
f 96/4/6 73/4/68 55/4/7
f 52/4/69 33/4/70 47/4/71
f 97/21/72 94/22/73 42/4/74 45/16/75
f 103/4/61 100/4/60 64/4/76 75/4/77
f 22/4/78 43/4/5 4/4/8
f 44/23/79 34/4/28 89/4/31 98/4/80
f 67/24/25 56/25/81 72/18/82 77/5/47
f 7/26/83 1/27/84 54/28/85 59/29/86
f 62/7/27 65/4/53 90/4/52 93/7/26
f 27/5/23 23/5/65 14/5/24
f 71/30/87 68/31/88 13/32/89 17/33/90
f 104/4/55 101/4/54 85/4/91
f 52/4/69 47/4/71 11/4/44 38/4/43
f 41/4/41 21/16/92 50/15/39
f 31/23/93 51/4/38 105/4/37 84/4/94
f 10/5/56 9/5/63 24/5/62 26/5/95 30/5/57
f 102/4/34 74/4/96 95/4/46
f 28/34/97 25/5/98 79/5/99 81/5/100
f 37/4/35 40/7/14 92/7/17 91/4/36
f 64/4/76 61/5/9 76/5/13 75/4/77
f 48/4/49 53/17/101 36/16/102 49/4/50
f 1/27/84 2/35/103 3/18/64 4/4/8
f 5/2/2 6/36/104 7/37/83
f 8/5/45 9/5/63 10/5/56
f 13/32/89 14/19/24 15/38/105
f 16/1/1 17/39/90 18/40/106
f 19/20/66 20/4/51 21/16/92 22/4/78
f 25/5/98 26/5/95 27/5/23
f 28/34/97 29/5/15 30/5/57
f 31/23/93 32/4/29 33/22/70
f 34/4/28 35/4/67 36/16/102
f 41/4/41 42/4/74 43/4/5
f 44/23/79 45/16/75 46/4/40
f 53/17/101 33/4/70 32/4/29
f 54/28/85 55/4/7 56/25/81 57/11/19
f 58/3/3 59/37/86 60/36/18
f 61/7/9 62/7/27 63/7/10
f 66/12/20 67/14/25 68/31/88
f 69/1/4 70/41/21 71/42/87
f 72/18/82 73/4/68 74/4/96 75/4/77
f 78/6/12 79/5/99 80/5/22
f 81/5/100 82/5/11 83/5/16
f 84/4/94 85/4/91 86/4/30
f 87/16/58 88/4/33 89/4/31
f 94/22/73 95/4/46 96/4/6
f 97/21/72 98/4/80 99/4/32
f 86/4/30 85/4/91 106/17/59
f 8/5/45 11/4/44 12/4/48 9/5/63
f 5/2/2 16/1/1 18/40/106 6/36/104
f 1/27/84 7/26/83 6/10/104 2/35/103
f 15/38/105 18/43/106 17/33/90 13/32/89
f 24/5/62 20/4/51 19/20/66 23/5/65
f 14/19/24 3/18/64 2/35/103 15/38/105
f 22/4/78 4/4/8 3/18/64 19/20/66
f 25/5/98 28/34/97 30/5/57 26/5/95
f 40/7/14 37/4/35 38/4/43 39/7/42
f 26/5/95 24/5/62 23/5/65 27/5/23
f 32/4/29 34/4/28 36/16/102 53/17/101
f 48/4/49 12/4/48 11/4/44 47/4/71
f 50/15/39 21/16/92 20/4/51 49/4/50
f 52/4/69 38/4/43 37/4/35 51/4/38
f 29/8/15 40/7/14 39/7/42 30/7/57
f 34/4/28 44/23/79 46/4/40 35/4/67
f 43/4/5 22/4/78 21/16/92 41/4/41
f 53/17/101 48/4/49 47/4/71 33/4/70
f 35/4/67 50/15/39 49/4/50 36/16/102
f 41/4/41 46/4/40 45/16/75 42/4/74
f 33/22/70 52/4/69 51/4/38 31/23/93
f 61/5/9 64/4/76 65/4/53 62/5/27
f 60/36/18 70/41/21 69/1/4 58/3/3
f 57/11/19 60/10/18 59/29/86 54/28/85
f 68/31/88 71/30/87 70/13/21 66/12/20
f 77/5/47 72/18/82 75/4/77 76/5/13
f 13/32/89 68/31/88 67/14/25 14/5/24
f 66/12/20 57/11/19 56/25/81 67/24/25
f 7/26/83 59/29/86 58/3/3 5/2/2
f 71/44/87 17/44/90 16/1/1 69/1/4
f 54/28/85 1/27/84 4/4/8 55/4/7
f 72/18/82 56/25/81 55/4/7 73/4/68
f 78/6/12 82/5/11 81/5/100 79/5/99
f 93/7/26 90/4/52 91/4/36 92/7/17
f 27/5/23 80/5/22 79/5/99 25/5/98
f 80/5/22 77/5/47 76/5/13 78/6/12
f 106/17/59 87/16/58 89/4/31 86/4/30
f 28/34/97 81/5/100 83/5/16 29/5/15
f 101/4/54 65/4/53 64/4/76 100/4/60
f 103/4/61 75/4/77 74/4/96 102/4/34
f 97/21/72 45/16/75 44/23/79 98/4/80
f 105/4/37 91/4/36 90/4/52 104/4/55
f 82/7/11 93/7/26 92/7/17 83/9/16
f 96/4/6 43/4/5 42/4/74 94/22/73
f 88/4/33 99/4/32 98/4/80 89/4/31
f 95/4/46 74/4/96 73/4/68 96/4/6
f 85/4/91 101/4/54 100/4/60 106/17/59
f 87/16/58 103/4/61 102/4/34 88/4/33
f 94/22/73 97/21/72 99/4/32 95/4/46
f 84/4/94 105/4/37 104/4/55 85/4/91
f 86/4/30 32/4/29 31/23/93 84/4/94
f 15/38/105 2/35/103 6/10/104 18/43/106
